<?xml version="1.0" encoding="UTF-8" standalone="no"?>

<svg
   version="1.1"
   id="svg1"
   width="16"
   height="16"
   viewBox="0 0 512 512"
   xmlns:xlink="http://www.w3.org/1999/xlink"
   xmlns="http://www.w3.org/2000/svg"
   xmlns:svg="http://www.w3.org/2000/svg">
  <defs
     id="defs1" />
  <g
     id="g1">
    <path
       style="fill:#000000"
       d="m 79.529156,437.75 c -0.22444,-0.6875 -1.028652,-14.075 -1.787137,-29.75 -0.758484,-15.675 -1.259098,-28.75672 -1.112474,
       -29.07048 0.146624,-0.31376 7.306802,0.45838 15.911507,1.71587 8.604708,1.2575 22.887398,2.97671 31.739318,3.82048 C 133.13229,
       385.30964 145.24044,386 151.18738,386 H 162 v -2.53984 c 0,-1.39691 -0.91184,-4.3272 -2.02632,-6.51175 -1.11448,-2.18456 -9.55331,
       -11.72913 -18.75296,-21.21017 C 132.02107,346.25721 122.19106,335.575 119.37627,332 c -2.8148,-3.575 -7.66518,-10.25076 -10.77863,
       -14.83503 -3.11345,-4.58427 -7.39316,-11.78427 -9.510464,-16 C 96.969873,296.94924 94.107525,289.9 92.726403,285.5 91.345281,
       281.1 89.465574,273.225 88.549277,268 c -0.916298,-5.225 -1.922344,-16.475 -2.235658,-25 -0.34224,-9.31202 -0.09542,-19.89147 0.618256,
       -26.5 0.653356,-6.05 2.104329,-15.2495 3.224383,-20.44333 1.120055,-5.19384 3.395106,-13.29384 5.055668,-18 C 96.872489,
       173.3505 100.03574,165.9 102.24136,161.5 c 2.20563,-4.4 6.03443,-11.15 8.50844,-15 2.47401,-3.85 7.58636,-10.67855 11.36077,
       -15.17455 3.77442,-4.496 10.01262,-10.99485 13.86266,-14.44188 3.85004,-3.44703 10.94358,-9.09405 15.76342,-12.54895 4.81984,
       -3.45489 13.71335,-8.761149 19.76335,-11.791678 6.05,-3.03053 15.80884,-7.101439 21.68632,-9.046464 5.87747,-1.945026 14.87747,
       -4.406136 20,-5.469133 5.12252,-1.062997 13.36368,-2.467907 18.31368,-3.122022 4.95,-0.654115 17.775,-1.18205 28.5,-1.173189 13.21411,
       0.01092 23.04589,0.560325 30.5,1.704362 6.05,0.928537 15.49598,2.820526 20.99108,4.204421 5.49509,1.383895 13.84016,4.002689 18.54459,
       5.819543 4.70443,1.816854 11.45845,4.764006 15.00892,6.549227 3.55048,1.785221 9.60541,5.271049 13.45541,7.746285 3.85,2.475238 9.7,
       6.652698 13,9.283238 3.3,2.63055 9.74506,8.5676 14.32235,13.19345 4.5773,4.62585 10.99826,12.1541 14.26882,16.72943 3.27055,
       4.57534 8.18682,12.794 10.92505,18.2637 2.73823,5.4697 6.31145,14.294 7.94049,19.60956 1.62905,5.31556 3.75271,13.71465 4.71924,
       18.66465 1.33241,6.82375 1.75243,13.957 1.73703,29.5 -0.0144,14.53111 -0.50356,23.26953 -1.68006,30.01189 -0.91286,5.23154 -2.82135,
       13.55654 -4.24108,18.5 -1.41973,4.94346 -4.9354,13.71311 -7.8126,19.48811 -2.8772,5.775 -8.27656,15.04839 -11.99858,20.60753 -3.72202,
       5.55914 -10.01032,14.162 -13.97399,19.11747 -3.96367,4.95547 -13.465,15.70708 -21.11408,23.89247 -7.64907,8.18539 -15.18657,
       16.88313 -16.75,19.32831 C 346.27917,378.39096 345,381.72426 345,383.35312 v 2.96156 l 17.75,-0.62379 c 9.7625,-0.34308 24.68716,
       -1.35046 33.16591,-2.23863 8.47875,-0.88816 20.77182,-2.38582 27.31794,-3.32814 6.54611,-0.94231 12.02418,-1.46823 12.17349,
       -1.16871 0.1493,0.29953 -0.30378,12.24459 -1.00685,26.54459 -0.70307,14.3 -1.3058,27.6875 -1.3394,29.75 L 433,439 H 358.5 284 l 0.006,
       -6.75 c 0.003,-3.7125 0.65514,-11.025 1.44867,-16.25 0.79353,-5.225 2.60758,-13.55 4.03122,-18.5 1.42365,-4.95 5.00784,-13.95 7.96487,
       -20 2.95704,-6.05 9.28473,-16.4 14.06154,-23 4.77682,-6.6 11.20867,-16.275 14.29302,-21.5 3.08435,-5.225 7.48614,-13.775 9.78175,
       -19 2.29562,-5.225 5.55519,-13.8227 7.24349,-19.106 1.68829,-5.2833 4.01663,-14.0583 5.17408,-19.5 1.45068,-6.82026 2.28597,
       -15.35798 2.68871,-27.48189 0.37786,-11.37526 0.1641,-20.55933 -0.60518,-26 -0.65417,-4.62666 -2.09385,-11.77894 -3.19929,
       -15.89396 -1.10543,-4.11502 -3.72578,-11.14349 -5.82299,-15.61883 -2.09722,-4.47534 -5.66753,-10.86772 -7.93403,-14.20529 -2.26649,
       -3.33757 -6.71085,-8.86628 -9.87633,-12.28604 C 320.08994,160.48824 314.575,155.4698 311,152.75591 c -3.575,-2.71389 -10.55,
       -6.90468 -15.5,-9.31288 -4.95,-2.4082 -13.05,-5.39269 -18,-6.63221 -7.41918,-1.85781 -11.72253,-2.25178 -24.5,-2.24296 -12.93109,
       0.009 -16.99162,0.39495 -24.5,2.32911 -4.95,1.27512 -12.30312,3.83443 -16.34028,5.68735 -4.03715,1.85293 -10.11411,5.34833 -13.50436,
       7.76756 -3.39025,2.41924 -9.37042,7.77404 -13.28926,11.89956 -3.91885,4.12553 -8.80346,10.36451 -10.85469,13.8644 -2.05123,
       3.4999 -4.62727,8.61811 -5.72453,11.3738 -1.09727,2.7557 -2.63266,7.03536 -3.41199,9.51036 -0.77933,2.475 -2.07984,8.775 -2.89003,
       14 -0.81019,5.225 -1.47203,14.675 -1.47076,21 0.001,6.325 0.45426,15.55 1.00664,20.5 0.55238,4.95 1.71115,12.6 2.57504,17 0.8639,
       4.4 2.65975,11.825 3.99079,16.5 1.33104,4.675 4.0186,12.63694 5.97237,17.69319 1.95376,5.05626 5.81865,13.60439 8.58865,18.99586 2.77,
       5.39147 9.84551,17.00453 15.72337,25.80681 5.87786,8.80228 12.56691,19.85764 14.86455,24.56748 2.29765,4.70984 5.58422,12.76201 7.3035,
       17.89371 1.71928,5.1317 3.95098,13.65319 4.95933,18.93665 1.00835,5.28347 2.14975,13.9938 2.53643,19.3563 l 0.70307,
       9.75 h -74.65031 c -58.835933,0 -74.736748,-0.26481 -75.058374,-1.25 z"
       id="path1"></path>
  </g>
</svg>
